<svg width="16" height="17" viewBox="0 0 16 17" fill="none" xmlns="http://www.w3.org/2000/svg">
    <rect y="0.5" width="16" height="16" rx="8" fill="white"/>
    <path fill-rule="evenodd" clip-rule="evenodd" d="M7.97962 16.5C10.3562 16.5 12.4914 15.4689 13.96 13.8308C13.2768 13.2386 12.2473 13.2026 11.5199 13.788L11.381 13.8998C10.0493 14.9716 8.10885 14.8133 6.96943 13.5399C6.34799 12.8454 5.2837 12.7745 4.57516 13.3804L2.97312 14.7504C4.34526 15.8453 6.08577 16.5 7.97962 16.5ZM10.5801 12.6261C11.8485 11.6052 13.6314 11.6418 14.8513 12.6279C15.5805 11.4227 16 10.0102 16 8.49998C16 6.82185 15.482 5.26442 14.5968 3.97807C14.0261 3.85685 13.4076 3.99843 12.938 4.41347L12.8044 4.53159C11.5237 5.66361 9.57799 5.5948 8.38085 4.37522C7.72792 3.71005 6.6615 3.68821 5.98176 4.32609L4.11747 6.07553L3.09187 4.98819L4.95619 3.23873C6.2295 2.04386 8.22722 2.08477 9.4503 3.33079C10.0894 3.98186 11.128 4.01857 11.8117 3.41427L11.9453 3.29614C12.3603 2.92932 12.8405 2.68203 13.3432 2.55197C11.9223 1.27633 10.0418 0.5 7.97962 0.5C3.90814 0.5 0.545268 3.52605 0.0281662 7.44633C1.26483 6.85441 2.79024 7.08218 3.79858 8.11212C4.43513 8.76233 5.4601 8.83095 6.17807 8.27146L7.22045 7.45919C8.53043 6.43835 10.3823 6.48775 11.6357 7.57704L13.6651 9.34059L12.6819 10.4662L10.6525 8.70263C9.9398 8.08327 8.88681 8.05515 8.14185 8.63564L7.09952 9.44789C5.7804 10.4758 3.89725 10.3497 2.72775 9.15514C2.04767 8.46049 0.935402 8.43624 0.225565 9.10064L0 9.31173C0.168808 10.9827 0.853098 12.5018 1.89184 13.7086L3.601 12.247C4.92826 11.112 6.92195 11.2449 8.08609 12.5459C8.69435 13.2257 9.73019 13.3101 10.4411 12.738L10.5801 12.6261Z" fill="#9E1F19"/>
</svg>
